<svg width="1382" height="457" viewBox="0 0 1382 457" fill="none" xmlns="http://www.w3.org/2000/svg">
<path d="M201.989 0.69004C191.189 1.62338 168.256 6.55671 155.989 10.4234C140.789 15.3567 114.923 27.7567 101.989 36.4234C31.4561 83.8901 -7.87688 167.89 1.32312 251.09C4.65612 280.29 11.5891 303.623 25.3231 331.09C37.1891 354.823 48.7891 371.223 67.3231 389.89C101.456 424.423 140.923 445.223 189.323 454.023C212.523 458.157 257.323 456.957 279.723 451.49L285.323 450.157V436.157C285.323 422.29 285.323 422.157 282.389 422.957C259.989 428.957 212.656 430.557 190.256 426.023C109.989 409.757 47.8561 348.157 30.3891 267.357C26.3891 249.09 26.1231 208.023 29.7231 190.023C35.1891 163.09 48.5231 131.89 64.1231 109.757C86.7891 77.6234 123.723 50.1568 160.523 37.7568C183.456 30.0234 194.256 28.5567 225.323 28.5567C249.989 28.5567 255.856 28.9568 267.456 31.4901C292.789 36.9568 319.589 47.8901 341.056 61.4901L349.589 66.8234L369.723 46.6901L358.523 39.3567C317.856 12.9567 272.256 -0.643283 225.589 0.0233833C215.589 0.156717 204.923 0.423373 201.989 0.69004Z" fill="#2D5DA7"/>
<path d="M392.656 51.4901C387.589 54.6901 329.056 115.09 281.323 166.423C216.923 235.757 209.056 243.757 205.989 243.757C203.323 243.757 177.456 218.423 141.856 180.957C130.656 169.09 127.323 166.423 121.723 164.557C104.923 158.957 87.9891 170.29 85.8561 188.69C84.2561 201.357 80.7891 195.89 144.389 277.09C186.256 330.423 187.323 331.623 193.856 334.557C204.389 339.357 219.989 337.223 227.856 330.023C229.589 328.423 269.323 276.023 316.123 213.757C362.923 151.357 405.723 94.4235 411.323 87.2235L421.589 73.8901L421.056 66.8235C420.656 61.7568 419.589 58.6901 417.189 56.2901C410.656 49.0901 399.856 47.0901 392.656 51.4901Z" fill="#2D5DA7"/>
<path d="M411.723 115.09L403.189 126.557L408.123 136.823C413.856 148.957 421.456 171.89 424.923 187.757C426.789 196.823 427.323 204.957 427.323 228.69V258.423H454.389L455.323 245.357C457.989 211.49 452.923 175.09 441.723 145.223C437.856 134.957 427.856 114.823 423.456 108.29L420.389 103.623L411.723 115.09Z" fill="#2D5DA7"/>
<path d="M303.99 362.423H570.656V274.423H303.99V362.423Z" fill="#2D5DA7"/>
<path d="M303.981 450.464H570.647V362.463H303.981V450.464Z" fill="#F7E047"/>
<path d="M617.514 279.606C607.114 282.406 598.448 290.139 593.381 301.072C590.848 306.672 590.314 310.006 590.314 321.072C590.314 332.939 590.714 335.206 594.048 342.006C600.981 356.272 612.848 363.072 630.314 363.072C642.448 363.072 651.648 360.272 659.381 354.406L665.648 349.606V318.406H630.981V333.206L646.981 332.139V337.606C646.981 342.272 646.448 343.339 642.714 345.206C636.981 348.272 622.981 347.339 618.048 343.472C611.248 338.539 608.981 332.806 608.981 321.072C608.981 303.072 615.381 295.072 629.781 295.072C638.048 295.072 644.848 298.406 647.248 303.739C648.048 305.606 649.381 306.939 650.181 306.672C650.981 306.406 654.848 305.072 658.581 303.872C662.448 302.539 665.914 301.072 666.314 300.406C666.581 299.872 665.114 296.939 662.848 293.872C653.381 280.672 634.848 274.939 617.514 279.606Z" fill="#2C343B"/>
<path d="M787.382 279.072C779.782 280.672 774.582 283.606 768.849 289.339C761.649 296.539 758.581 304.406 757.915 317.872C756.848 338.539 763.382 352.139 778.182 359.606C784.849 363.072 787.249 363.606 796.716 363.606C814.982 363.472 826.182 356.806 832.982 341.339C837.782 330.806 838.181 314.272 833.781 303.072C827.115 285.472 806.849 274.939 787.382 279.072ZM805.648 296.672C813.915 300.806 817.649 308.406 817.516 320.406C817.382 337.472 810.049 347.072 797.249 347.072C785.382 347.072 777.916 338.806 776.716 324.406C775.382 309.872 780.448 299.206 790.315 295.739C797.515 293.206 798.848 293.206 805.648 296.672Z" fill="#2C343B"/>
<path d="M682.314 361.739H700.981L700.181 333.739H705.514C710.714 333.739 710.848 333.872 720.981 348.406L731.114 363.072H740.314C745.514 363.072 749.648 362.539 749.648 362.006C749.648 361.339 745.114 354.406 739.648 346.406C734.048 338.539 729.648 331.872 729.914 331.739C730.181 331.606 732.314 330.406 734.714 329.206C736.981 328.006 740.581 324.539 742.714 321.472C745.781 316.806 746.314 314.539 746.314 306.539C746.314 285.339 735.381 279.072 699.114 279.072H682.314V361.739ZM715.114 294.939C726.848 295.206 732.448 306.139 725.114 314.672C722.181 318.006 720.981 318.406 711.114 318.806L700.314 319.339V307.472C700.314 300.939 700.581 295.206 700.981 294.939C701.248 294.539 703.248 294.406 705.248 294.539C707.248 294.672 711.781 294.806 715.114 294.939Z" fill="#2C343B"/>
<path d="M849.648 306.272C849.648 340.939 850.581 345.739 858.848 353.872C866.181 360.939 872.581 363.072 886.581 363.072C896.581 363.072 906.714 359.339 911.914 353.606C918.314 346.539 918.981 342.539 918.981 309.739V278.939L901.781 279.472L900.981 339.339L897.248 342.406C890.314 348.406 877.381 348.006 871.514 341.606C869.248 339.072 868.981 336.139 868.581 309.072L868.181 279.472L849.648 278.939V306.272Z" fill="#2C343B"/>
<path d="M936.315 361.739H954.981V335.072H964.715C982.448 335.072 992.181 330.139 996.848 318.806C1001.12 308.806 998.315 292.939 991.515 286.806C985.381 281.339 978.981 280.006 957.381 279.339L936.315 278.806V361.739ZM977.115 298.139C982.181 302.539 982.315 310.939 977.248 316.006C974.181 319.072 972.315 319.739 964.448 320.139L955.115 320.672L954.315 295.072H963.915C972.048 295.072 974.048 295.606 977.115 298.139Z" fill="#2C343B"/>
<path d="M977.99 151.29C966.656 154.09 956.79 162.49 951.456 173.957C949.19 179.023 948.656 182.623 948.656 194.09C948.79 210.89 951.323 217.557 961.323 226.49C969.056 233.423 975.056 235.423 988.256 235.423C999.59 235.423 1005.32 233.823 1011.72 229.157C1015.86 226.09 1023.99 216.09 1023.99 214.09C1023.99 213.69 1020.52 211.823 1016.39 209.957C1012.12 208.223 1008.26 206.623 1007.72 206.357C1007.19 206.09 1005.86 207.823 1004.66 210.09C999.99 219.29 986.123 222.357 977.323 216.357C971.056 212.223 967.856 206.09 967.056 197.023C966.123 186.49 968.523 178.623 974.656 172.49C979.323 167.69 980.256 167.423 987.59 167.423C996.523 167.423 1001.19 169.957 1004.66 176.89L1006.66 180.757L1013.06 178.223C1016.52 176.89 1020.39 175.423 1021.72 175.023C1023.99 174.223 1023.99 173.823 1021.46 168.89C1014.26 154.757 995.19 147.157 977.99 151.29Z" fill="#2C343B"/>
<path d="M1245.06 151.823C1225.99 157.29 1216.12 173.69 1217.59 197.423C1218.66 213.156 1225.86 225.29 1237.99 231.823C1242.39 234.223 1245.46 234.756 1256.66 234.756C1271.59 234.756 1277.06 232.756 1284.92 224.49C1292.79 216.356 1295.32 208.623 1295.32 192.756C1295.19 177.423 1293.72 172.356 1286.66 163.423C1278.39 152.89 1259.72 147.823 1245.06 151.823ZM1267.72 169.69C1274.52 174.756 1276.66 180.356 1276.66 192.756C1276.66 201.823 1276.12 205.023 1273.86 208.756C1265.59 222.89 1247.72 222.89 1239.46 208.89C1237.72 205.823 1236.66 201.156 1236.39 194.223C1235.86 185.556 1236.26 183.156 1238.92 178.09C1243.32 169.556 1249.59 165.69 1257.72 166.49C1261.32 166.756 1265.86 168.223 1267.72 169.69Z" fill="#2C343B"/>
<path d="M523.342 152.342C514.276 156.476 505.876 166.209 503.209 175.542C499.876 186.742 501.076 205.142 505.742 213.942C512.542 227.276 523.876 233.542 540.942 233.542C550.409 233.542 552.942 233.008 559.609 229.675C567.076 225.941 573.609 219.276 575.209 213.809C575.876 211.542 574.676 210.476 567.742 207.409C561.876 204.876 559.209 204.209 558.809 205.276C558.542 206.209 556.409 209.009 554.009 211.542C550.409 215.542 548.809 216.342 542.542 216.742C527.876 217.809 520.009 209.008 520.009 191.141C520.009 173.275 527.876 164.476 542.542 165.542C548.809 165.942 550.409 166.742 554.009 170.742C556.409 173.276 558.542 176.075 558.809 177.008C559.609 179.141 576.009 173.275 576.009 171.008C576.009 168.341 567.609 158.076 562.809 154.876C552.942 148.209 534.676 147.009 523.342 152.342Z" fill="#2C343B"/>
<path d="M590.657 234.09H645.991V219.423H609.324V200.757H641.324V184.623L609.324 185.423V167.423H645.324V151.423H590.657V234.09Z" fill="#2C343B"/>
<path d="M661.323 234.09H679.989V205.957L684.923 206.357C689.456 206.757 690.389 207.69 699.189 220.357L708.656 234.09H718.389C723.589 234.09 727.989 233.823 727.989 233.423C727.989 232.623 712.389 210.223 709.456 206.89C707.989 205.023 707.723 204.223 708.923 203.823C713.189 202.357 719.456 196.89 721.856 192.757C723.989 189.29 724.656 185.823 724.656 178.757C724.656 167.957 721.856 161.957 714.923 157.157C708.523 152.89 699.323 151.423 679.323 151.423H661.323V234.09ZM701.189 169.423C708.123 172.89 708.789 181.557 702.789 187.557C699.189 191.157 698.123 191.423 689.456 191.423H679.989V167.423H688.656C693.723 167.423 699.056 168.223 701.189 169.423Z" fill="#2C343B"/>
<path d="M734.656 167.423H759.323L758.523 234.09H777.323V167.423H801.323V151.423H734.656V167.423Z" fill="#2C343B"/>
<path d="M813.323 234.09H830.656V151.423H813.323V234.09Z" fill="#2C343B"/>
<path d="M849.323 234.09H867.989V203.423H898.656V187.423H867.989V167.423H902.656V151.423H849.323V234.09Z" fill="#2C343B"/>
<path d="M915.989 234.09H933.323V151.423H915.989V234.09Z" fill="#2C343B"/>
<path d="M1055.99 163.023C1047.32 186.89 1030.66 233.157 1030.66 233.557C1030.66 233.823 1034.79 234.09 1039.86 234.09H1049.06L1051.59 226.357L1054.26 218.757L1086.39 217.957L1088.92 225.69L1091.59 233.423L1101.32 233.823C1108.79 234.09 1110.92 233.823 1110.39 232.49C1110.12 231.557 1103.32 212.89 1095.19 191.157L1080.66 151.423H1060.26L1055.99 163.023ZM1075.86 186.357C1078.39 193.957 1080.66 200.89 1080.92 201.69C1081.46 203.023 1078.79 203.423 1070.39 203.423H1059.06L1064.52 188.09C1067.59 179.69 1070.26 172.757 1070.66 172.757C1071.06 172.757 1073.46 178.89 1075.86 186.357Z" fill="#2C343B"/>
<path d="M1105.32 167.423H1129.32V234.09H1147.99V167.423H1172.12L1171.59 151.423H1105.32V167.423Z" fill="#2C343B"/>
<path d="M1183.99 234.09H1201.32V151.423H1183.99V234.09Z" fill="#2C343B"/>
<path d="M1309.34 231.809H1326.68V173.809L1333.74 186.476C1337.61 193.409 1345.21 206.476 1350.54 215.409L1360.41 231.809H1381.34V149.141H1363.88L1364.28 177.809C1364.54 193.542 1364.28 205.942 1363.74 205.409C1363.34 204.876 1358.68 197.275 1353.61 188.341C1348.41 179.541 1340.81 167.009 1336.81 160.742L1329.34 149.141H1309.34V231.809Z" fill="#2C343B"/>
<path d="M673.98 109H692.646V79.6671H697.18C701.58 79.6671 702.246 80.4671 711.58 94.3341L721.313 108.867L731.713 109H742.246L737.58 102.6C720.913 79.4001 720.246 78.3341 722.913 77.4001C732.38 74.0671 737.846 65 737.98 52.734C737.98 44.067 736.38 39.0001 732.246 34.6001C725.98 27.8001 722.78 27.1341 697.58 26.3341L673.98 25.6671V109ZM716.246 44.2001C719.18 46.7341 719.98 48.467 719.98 53C719.98 57.534 719.18 59.2671 716.246 61.8001C713.046 64.6001 711.18 65 702.513 65H692.646V41H702.513C711.18 41 713.046 41.4001 716.246 44.2001Z" fill="#2C343B"/>
<path d="M772.781 43.2671C769.048 53.4001 762.248 72.3341 757.448 85.2671L748.914 109H768.114L770.781 101L773.314 92.867L805.981 92.3341L808.781 100.6L811.581 109H830.914L799.981 25.0001H779.581L772.781 43.2671ZM795.714 62.0671C798.514 69.6671 800.648 76.0671 800.648 76.4671C800.648 76.7341 795.581 77 789.448 77H778.381L783.848 61.8001C786.914 53.4001 789.714 46.8671 790.114 47.4001C790.514 47.9341 793.048 54.4671 795.714 62.0671Z" fill="#2C343B"/>
<path d="M843.446 109H860.646V25.0001H842.646L843.446 109Z" fill="#2C343B"/>
<path d="M879.313 109H896.647L896.913 79.4001L897.313 49.8001L901.847 58.3341C904.38 63.1341 912.113 76.4671 918.913 87.9341L931.447 109H952.647V25.0001H934.647L935.447 83L921.047 59C913.047 45.8 905.047 32.7341 903.313 30.0671L899.98 25.0001H879.313V109Z" fill="#2C343B"/>
<path d="M971.313 109H989.98V25.0001H971.313V109Z" fill="#2C343B"/>
<path d="M1031.45 27.9341C1030.25 31.1341 1006.91 95.5341 1003.85 103.934L1002.11 109H1021.45L1024.11 100.6L1026.78 92.3341L1043.05 91.9341C1053.18 91.6671 1059.31 92.067 1059.31 92.867C1059.31 93.667 1060.51 97.5341 1062.11 101.667L1064.78 109H1074.11C1079.18 109 1083.31 108.734 1083.31 108.334C1083.31 107.534 1057.98 39.2671 1054.38 29.9341L1052.38 25.0001H1042.51C1033.45 25.0001 1032.51 25.2671 1031.45 27.9341ZM1048.51 62.0671L1053.71 77H1042.38C1036.25 77 1031.31 76.4671 1031.58 75.9341C1031.85 75.4001 1034.38 68.4671 1037.18 60.6001C1039.98 52.7341 1042.51 46.467 1042.78 46.734C1043.05 46.867 1045.58 53.8001 1048.51 62.0671Z" fill="#2C343B"/>
<path d="M1095.31 109H1112.65V49.8001L1121.85 65.8001C1126.78 74.4671 1134.51 87.667 1138.91 95L1146.91 108.334L1168.65 109.134V25.0001H1149.58L1150.65 53.6671C1151.18 69.4001 1151.31 82.3341 1150.91 82.3341C1150.51 82.3341 1147.45 77.4001 1143.98 71.2671C1140.51 65.2671 1132.78 52.3341 1126.91 42.6001L1116.25 25.0001H1095.31V109Z" fill="#2C343B"/>
<path d="M501.581 55.9341C501.847 72.3341 502.648 87.934 503.314 90.734C509.314 112.067 544.514 118.867 562.648 102.2C565.848 99.2671 569.048 94.8671 569.848 92.6001C570.514 90.2001 571.314 74.3341 571.714 57.2671L572.381 26.3341H553.981V54.2001C553.981 71 553.448 83.5341 552.514 86.2001C550.514 91.6671 545.314 94.3341 535.981 94.3341C529.448 94.3341 527.981 93.8001 524.514 90.4671L520.648 86.6001V26.3341H501.314L501.581 55.9341Z" fill="#2C343B"/>
<path d="M589.98 110.333H608.513L609.313 70.333L639.98 109H663.313L655.846 99.9331C651.713 95.0001 643.713 85.267 637.98 78.333L627.713 65.6671L636.513 55.4001C641.313 49.8001 649.18 41.0001 653.846 35.8001L662.246 26.3331H638.646L623.98 44.333L609.313 62.2001L608.513 26.3331H589.98V110.333Z" fill="#2C343B"/>
</svg>
